Coordinates
version=1
nRows=17
nColumns=36
inDegrees=yes

Units are S.I. units (second, meters, Newtons, ...)
If the header above contains a line with 'inDegrees', this indicates whether rotational values are in degrees (yes) or radians (no).

endheader
time	pelvis_tilt	pelvis_list	pelvis_rotation	pelvis_tx	pelvis_ty	pelvis_tz	hip_flexion_r	hip_adduction_r	hip_rotation_r	knee_angle_r	knee_angle_r_beta	ankle_angle_r	subtalar_angle_r	mtp_angle_r	hip_flexion_l	hip_adduction_l	hip_rotation_l	knee_angle_l	knee_angle_l_beta	ankle_angle_l	subtalar_angle_l	mtp_angle_l	lumbar_extension	lumbar_bending	lumbar_rotation	arm_flex_r	arm_add_r	arm_rot_r	elbow_flex_r	pro_sup_r	arm_flex_l	arm_add_l	arm_rot_l	elbow_flex_l	pro_sup_l
      0.48833330	    -24.98287326	     -1.47970717	      0.10682032	     -0.71060093	      1.08808799	     -0.05821240	     47.77284906	      4.08973129	      3.97342568	     66.61565657	      1.16266254	     32.77902744	    -12.63420623	     -7.49999987	     46.84235339	     -0.41977096	     12.05187276	     67.14148186	      1.17183992	     28.67833431	    -23.72707561	     -7.49999987	    -13.43578207	      1.49892077	     -2.05127625	     56.13941586	     -5.59574188	     25.53528362	     55.12085770	     72.92398976	     59.56439685	     -0.40617590	     23.21948945	     51.87947109	     63.89261982
      0.49000000	    -24.39715737	     -1.35626110	      0.10118219	     -0.70336783	      1.09203887	     -0.05984883	     46.33775069	      3.79824176	      3.98842585	     66.09908769	      1.15364671	     32.04620863	    -12.95958895	     -7.49999987	     45.68565669	     -0.20807218	     12.01288951	     67.03510292	      1.16998326	     28.15209802	    -23.54493976	     -7.49999987	    -13.16035057	      1.57133443	     -2.07698732	     56.86211189	     -5.56091146	     25.76996998	     55.64716059	     72.79431166	     60.20816501	      0.16938131	     23.23252193	     52.39160609	     63.44113493
      0.49166670	    -23.90581303	     -1.27738631	     -0.00966241	     -0.69894806	      1.09209822	     -0.05955679	     45.25862567	      3.59567826	      3.94134004	     65.85931996	      1.14946198	     31.64025741	    -13.14561668	     -7.49999987	     44.80854719	     -0.16259084	     11.84465794	     67.14667378	      1.17193054	     27.86635838	    -23.33997693	     -7.49999987	    -12.96280069	      1.64534035	     -1.81430090	     57.94226301	     -5.58877464	     25.95836009	     56.26604051	     71.50002602	     60.93123103	      0.58120315	     23.05513317	     53.38721411	     62.49660708
      0.49333330	    -23.43412113	     -1.19366394	     -0.04274654	     -0.69397628	      1.09271551	     -0.05801221	     44.20006111	      3.43125174	      3.77268782	     65.63974520	      1.14562967	     31.76973956	    -12.53594632	     -7.49999987	     44.10315289	     -0.15267578	     11.81654313	     67.28588846	      1.17436029	     27.54565044	    -23.03053195	     -7.49999987	    -12.52318466	      1.65596912	     -1.81022999	     58.81855638	     -5.22608386	     26.13901027	     56.69759126	     70.38865893	     61.76209445	      0.90305632	     22.96406147	     53.92681953	     61.69885524
      0.49500000	    -23.03299053	     -1.04189870	     -0.14464612	     -0.68920792	      1.09473953	     -0.05736140	     43.22736075	      3.30003770	      3.77129991	     65.40182069	      1.14147711	     31.74117328	    -12.32971602	     -7.49999987	     43.50752748	     -0.17502748	     11.65674739	     67.47623680	      1.17768250	     26.96207083	    -22.72019835	     -7.49999987	    -12.03557413	      1.53901269	     -1.78774400	     59.79714301	     -4.90382184	     26.35807053	     56.89678761	     69.48291885	     62.70549455	      1.11795254	     23.11661955	     54.29851738	     60.88994263
      0.49666670	    -22.96359280	     -0.87953630	     -0.17163807	     -0.68369153	      1.09652794	     -0.05552868	     42.61570534	      3.23584876	      3.83450491	     64.94787504	      1.13355426	     31.73250727	    -12.21061172	     -7.49999987	     43.27710598	     -0.17551749	     11.65078962	     67.64053600	      1.18055006	     26.53999300	    -22.43874968	     -7.49999987	    -11.05831392	      1.27408465	     -1.70448574	     60.41168004	     -4.66576694	     26.32414261	     57.07217193	     69.47599502	     63.26855847	      1.25380544	     23.08762739	     54.47824512	     60.85184973
      0.49833330	    -22.20823355	     -0.88555019	     -0.18938867	     -0.67889373	      1.09776266	     -0.05631586	     41.35838998	      3.24081723	      3.69109153	     64.72257100	      1.12962196	     31.85591568	    -11.62567670	     -7.49999987	     42.38173931	     -0.40354758	     11.45954122	     67.92004798	      1.18542847	     25.44477548	    -22.16344997	     -7.49999987	    -11.18379478	      1.30431981	     -1.71258427	     61.63204977	     -4.25357972	     26.48647706	     56.92099008	     69.33960676	     64.44470519	      1.59189660	     23.23954996	     54.58826432	     60.33811477
      0.50000000	    -22.03976636	     -0.83197430	     -0.10989325	     -0.67130461	      1.10110466	     -0.05471136	     40.46693403	      3.22218759	      3.66333978	     64.12132627	      1.11912826	     31.61957172	    -11.28321862	     -7.49999987	     42.06940130	     -0.62052580	     11.19797313	     68.20592203	      1.19041791	     24.25483958	    -21.70423577	     -7.49999987	    -10.47605183	      1.18949948	     -1.65055751	     62.31996237	     -3.84474154	     26.54554878	     56.98458826	     69.29968732	     65.07606558	      1.65922123	     23.27957857	     54.64042876	     60.19381382
      0.50166670	    -21.22269662	     -0.75765219	      0.04254600	     -0.66702187	      1.09945477	     -0.05434590	     39.03144484	      3.05150732	      3.52736524	     63.67526833	      1.11134308	     31.89419791	    -10.50503580	     -7.49999987	     41.45647296	     -0.66483446	     10.91862589	     69.07592975	      1.20560241	     22.38527014	    -22.22010422	     -7.49999987	    -10.67142213	      1.16269719	     -2.04942535	     63.97117234	     -2.70574377	     27.26643318	     55.63651778	     68.74469994	     66.79823207	      1.86578977	     24.10792685	     53.77460718	     59.04584779
      0.50333330	    -20.85467946	     -0.73985942	      0.13475210	     -0.66365517	      1.10175009	     -0.05567369	     38.14119619	      2.73974000	      3.25969891	     63.24188620	      1.10377914	     31.74400422	    -10.18826332	     -7.49999987	     41.39668625	     -0.57580914	     10.73774752	     69.89397507	      1.21987999	     21.14873130	    -21.99203450	     -7.49999987	    -10.60738826	      1.24103361	     -2.88436069	     65.38353814	     -1.51801190	     27.85482698	     55.10199818	     68.56049363	     69.02663200	      2.07319297	     24.68817194	     52.20522804	     58.28683781
      0.50500000	    -20.51526654	     -0.55366202	      0.18874602	     -0.65613734	      1.10435591	     -0.05394639	     36.99747411	      2.44813107	      3.23492758	     62.53010310	      1.09135618	     31.63594869	     -9.62979581	     -7.49999987	     40.99133005	     -0.58673680	     10.58654307	     70.16026767	      1.22452767	     19.55603800	    -21.53067382	     -7.49999987	    -10.30445774	      1.02611947	     -2.97828745	     66.39883718	     -1.43103439	     29.18183465	     54.90317748	     65.89618314	     70.62194115	      1.83670091	     27.06463616	     51.44179708	     50.04133385
      0.50666670	    -20.09587452	     -0.43654831	      0.22980526	     -0.65111937	      1.10634547	     -0.05540561	     35.90743402	      2.07005453	      3.07909261	     61.95588878	      1.08133425	     31.42030419	     -9.36668286	     -7.49999987	     40.73190762	     -0.48812932	     10.53885401	     70.73253811	      1.23451568	     17.87214184	    -20.97906604	     -7.49999987	    -10.26439182	      0.89146941	     -3.42845001	     67.22479063	     -0.93305383	     29.36832151	     55.24573159	     65.94025773	     71.78062951	      1.40715426	     27.16122247	     51.23485539	     50.01182568
      0.50833330	    -19.77633529	     -0.30960349	      0.15871853	     -0.64341927	      1.10744052	     -0.05437437	     34.75364704	      1.79204000	      2.96454379	     61.15333617	      1.06732706	     31.08037669	     -8.83634355	     -7.49999987	     40.37730584	     -0.56301432	     10.37156440	     70.87825431	      1.23705891	     15.97957464	    -20.39405012	     -7.49999987	     -9.96941114	      0.70382980	     -3.18603789	     68.01072864	     -1.05857464	     29.61599105	     55.47361319	     66.00795686	     72.42298382	      0.80510972	     27.22754674	     51.38572926	     49.99412083
      0.51000000	    -19.13423963	     -0.07239768	      0.24219286	     -0.63780938	      1.10913323	     -0.05580095	     33.35096886	      1.32579165	      2.73287411	     60.65866245	      1.05869338	     31.20034302	     -8.14077992	     -7.49999987	     39.88102351	     -0.34345788	     10.08753003	     71.46933160	      1.24737515	     13.88755490	    -20.37794981	     -7.49999987	    -10.24376483	      0.52575450	     -3.08952967	     68.96478261	     -1.55121953	     30.35016288	     56.14580908	     66.21178701	     73.31261844	      0.11778131	     27.39796891	     52.09781953	     49.93243101
      0.51166670	    -19.01842037	      0.15079944	      0.26477382	     -0.63154567	      1.11029997	     -0.05441583	     32.44844457	      0.98202764	      2.57242876	     60.17041400	      1.05017184	     31.08529112	     -7.90069723	     -7.49999987	     40.08410454	     -0.36770547	      9.73879798	     72.06271138	      1.25773158	     12.07820481	    -19.53560336	     -7.49999987	     -9.73409166	      0.24376963	     -2.82229341	     69.64754469	     -1.77764034	     30.36052525	     56.37405005	     66.25861269	     74.04914313	     -0.28912690	     27.20210798	     52.26278111	     49.90162426
      0.51333330	    -18.30428043	      0.33713900	      0.40691925	     -0.62345290	      1.11291185	     -0.05247640	     30.79811717	      0.69120132	      2.31692866	     59.52111421	      1.03883942	     30.76391219	     -7.36378853	     -7.49999987	     39.27925201	     -0.40130545	      9.64344146	     72.18257093	      1.25982353	      9.76962930	    -19.53493318	     -7.49999987	     -9.97158923	      0.06311688	     -2.72011416	     70.10351749	     -2.26374230	     31.01219723	     57.77652617	     66.57977404	     75.01103282	     -0.79403145	     27.17467254	     52.72078366	     49.76859769
      0.51500000	    -17.93560843	      0.57338195	      0.37480743	     -0.61775592	      1.11504809	     -0.05225929	     29.47395894	      0.39000082	      2.10313712	     58.75748127	      1.02551151	     30.26869286	     -7.27670852	     -7.49999987	     38.91537020	     -0.45831879	      9.35870982	     72.07802535	      1.25799886	      7.84470445	    -19.18854805	     -7.49999987	     -9.76423681	     -0.30182016	     -2.25406507	     70.27641681	     -2.55727938	     30.87808023	     58.96063268	     66.88720537	     75.77418041	     -1.15615433	     27.40124472	     53.42082141	     49.62227281
